{
  "accessors": [
    {
      "bufferView": 1,
      "componentType": 5126,
      "count": 2187,
      "max": [
        16.30500030517578,
        32.16899871826172,
        7.730000019073486
      ],
      "min": [
        -8.305000305175781,
        7.047999858856201,
        1.1799999475479126
      ],
      "type": "VEC3"
    },
    {
      "bufferView": 1,
      "byteOffset": 26244,
      "componentType": 5126,
      "count": 2187,
      "max": [
        1.0,
        0.9876325726509094,
        0.9877365827560425
      ],
      "min": [
        -1.0,
        -0.9876981973648071,
        -0.9877365827560425
      ],
      "type": "VEC3"
    },
    {
      "bufferView": 0,
      "componentType": 5125,
      "count": 4032,
      "type": "SCALAR"
    }
  ],
  "asset": {
    "extras": {
      "author": "lex.brinn (https://sketchfab.com/lex.brinn)",
      "license": "CC-BY-4.0 (http://creativecommons.org/licenses/by/4.0/)",
      "source": "https://sketchfab.com/3d-models/k-2f322dab13694f6db1fb4795ff209171",
      "title": "K"
    },
    "generator": "Sketchfab-12.66.0",
    "version": "2.0"
  },
  "bufferViews": [
    {
      "buffer": 0,
      "byteLength": 16128,
      "name": "floatBufferViews",
      "target": 34963
    },
    {
      "buffer": 0,
      "byteLength": 52488,
      "byteOffset": 16128,
      "byteStride": 12,
      "name": "floatBufferViews",
      "target": 34962
    }
  ],
  "buffers": [
    {
      "byteLength": 68616,
      "uri": "scene.bin"
    }
  ],
  "materials": [
    {
      "doubleSided": true,
      "name": "3D_Text_material_18517fc2-110a-4b5d-a474-570f0e9146d7",
      "pbrMetallicRoughness": {
        "metallicFactor": 0.0,
        "roughnessFactor": 0.6
      }
    }
  ],
  "meshes": [
    {
      "name": "Object_0",
      "primitives": [
        {
          "attributes": {
            "NORMAL": 1,
            "POSITION": 0
          },
          "indices": 2,
          "material": 0,
          "mode": 4
        }
      ]
    }
  ],
  "nodes": [
    {
      "children": [
        1
      ],
      "matrix": [
        1.0,
        0.0,
        0.0,
        0.0,
        0.0,
        2.220446049250313e-16,
        -1.0,
        0.0,
        0.0,
        1.0,
        2.220446049250313e-16,
        0.0,
        0.0,
        0.0,
        0.0,
        1.0
      ],
      "name": "Sketchfab_model"
    },
    {
      "children": [
        2
      ],
      "name": "33906eb38d5341968d5be8abc3dc9d73.obj.cleaner.materialmerger.gles"
    },
    {
      "mesh": 0,
      "name": "Object_2"
    }
  ],
  "scene": 0,
  "scenes": [
    {
      "name": "Sketchfab_Scene",
      "nodes": [
        0
      ]
    }
  ]
}
